# Tree Model
# Simple tree with trunk and sphere foliage
mtllib tree.mtl
o Tree

# Trunk vertices
v -0.150000 0.000000 -0.150000
v 0.150000 0.000000 -0.150000
v 0.150000 0.000000 0.150000
v -0.150000 0.000000 0.150000
v -0.150000 2.500000 -0.150000
v 0.150000 2.500000 -0.150000
v 0.150000 2.500000 0.150000
v -0.150000 2.500000 0.150000

# Sphere vertices (foliage)
v 0.000000 2.500000 0.000000
v 0.000000 2.500000 0.000000
v 0.000000 2.500000 0.000000
v -0.000000 2.500000 0.000000
v -0.000000 2.500000 0.000000
v -0.000000 2.500000 -0.000000
v -0.000000 2.500000 -0.000000
v 0.000000 2.500000 -0.000000
v 0.000000 2.500000 -0.000000
v 0.382683 2.576120 0.000000
v 0.270598 2.576120 0.270598
v 0.000000 2.576120 0.382683
v -0.270598 2.576120 0.270598
v -0.382683 2.576120 0.000000
v -0.270598 2.576120 -0.270598
v -0.000000 2.576120 -0.382683
v 0.270598 2.576120 -0.270598
v 0.382683 2.576120 -0.000000
v 0.707107 2.792893 0.000000
v 0.500000 2.792893 0.500000
v 0.000000 2.792893 0.707107
v -0.500000 2.792893 0.500000
v -0.707107 2.792893 0.000000
v -0.500000 2.792893 -0.500000
v -0.000000 2.792893 -0.707107
v 0.500000 2.792893 -0.500000
v 0.707107 2.792893 -0.000000
v 0.923880 3.117317 0.000000
v 0.653281 3.117317 0.653281
v 0.000000 3.117317 0.923880
v -0.653281 3.117317 0.653281
v -0.923880 3.117317 0.000000
v -0.653281 3.117317 -0.653281
v -0.000000 3.117317 -0.923880
v 0.653281 3.117317 -0.653281
v 0.923880 3.117317 -0.000000
v 1.000000 3.500000 0.000000
v 0.707107 3.500000 0.707107
v 0.000000 3.500000 1.000000
v -0.707107 3.500000 0.707107
v -1.000000 3.500000 0.000000
v -0.707107 3.500000 -0.707107
v -0.000000 3.500000 -1.000000
v 0.707107 3.500000 -0.707107
v 1.000000 3.500000 -0.000000
v 0.923880 3.882683 0.000000
v 0.653281 3.882683 0.653281
v 0.000000 3.882683 0.923880
v -0.653281 3.882683 0.653281
v -0.923880 3.882683 0.000000
v -0.653281 3.882683 -0.653281
v -0.000000 3.882683 -0.923880
v 0.653281 3.882683 -0.653281
v 0.923880 3.882683 -0.000000
v 0.707107 4.207107 0.000000
v 0.500000 4.207107 0.500000
v 0.000000 4.207107 0.707107
v -0.500000 4.207107 0.500000
v -0.707107 4.207107 0.000000
v -0.500000 4.207107 -0.500000
v -0.000000 4.207107 -0.707107
v 0.500000 4.207107 -0.500000
v 0.707107 4.207107 -0.000000
v 0.382683 4.423880 0.000000
v 0.270598 4.423880 0.270598
v 0.000000 4.423880 0.382683
v -0.270598 4.423880 0.270598
v -0.382683 4.423880 0.000000
v -0.270598 4.423880 -0.270598
v -0.000000 4.423880 -0.382683
v 0.270598 4.423880 -0.270598
v 0.382683 4.423880 -0.000000
v 0.000000 4.500000 0.000000
v 0.000000 4.500000 0.000000
v 0.000000 4.500000 0.000000
v -0.000000 4.500000 0.000000
v -0.000000 4.500000 0.000000
v -0.000000 4.500000 -0.000000
v -0.000000 4.500000 -0.000000
v 0.000000 4.500000 -0.000000
v 0.000000 4.500000 -0.000000

# Normals
vn 0.0000 -1.0000 0.0000
vn 0.0000 0.0000 -1.0000
vn 1.0000 0.0000 0.0000
vn 0.0000 0.0000 1.0000
vn -1.0000 0.0000 0.0000

# Sphere normals
vn 0.000000 -1.000000 0.000000
vn 0.000000 -1.000000 0.000000
vn 0.000000 -1.000000 0.000000
vn -0.000000 -1.000000 0.000000
vn -0.000000 -1.000000 0.000000
vn -0.000000 -1.000000 -0.000000
vn -0.000000 -1.000000 -0.000000
vn 0.000000 -1.000000 -0.000000
vn 0.000000 -1.000000 -0.000000
vn 0.382683 -0.923880 0.000000
vn 0.270598 -0.923880 0.270598
vn 0.000000 -0.923880 0.382683
vn -0.270598 -0.923880 0.270598
vn -0.382683 -0.923880 0.000000
vn -0.270598 -0.923880 -0.270598
vn -0.000000 -0.923880 -0.382683
vn 0.270598 -0.923880 -0.270598
vn 0.382683 -0.923880 -0.000000
vn 0.707107 -0.707107 0.000000
vn 0.500000 -0.707107 0.500000
vn 0.000000 -0.707107 0.707107
vn -0.500000 -0.707107 0.500000
vn -0.707107 -0.707107 0.000000
vn -0.500000 -0.707107 -0.500000
vn -0.000000 -0.707107 -0.707107
vn 0.500000 -0.707107 -0.500000
vn 0.707107 -0.707107 -0.000000
vn 0.923880 -0.382683 0.000000
vn 0.653281 -0.382683 0.653281
vn 0.000000 -0.382683 0.923880
vn -0.653281 -0.382683 0.653281
vn -0.923880 -0.382683 0.000000
vn -0.653281 -0.382683 -0.653281
vn -0.000000 -0.382683 -0.923880
vn 0.653281 -0.382683 -0.653281
vn 0.923880 -0.382683 -0.000000
vn 1.000000 0.000000 0.000000
vn 0.707107 0.000000 0.707107
vn 0.000000 0.000000 1.000000
vn -0.707107 0.000000 0.707107
vn -1.000000 0.000000 0.000000
vn -0.707107 0.000000 -0.707107
vn -0.000000 0.000000 -1.000000
vn 0.707107 0.000000 -0.707107
vn 1.000000 0.000000 -0.000000
vn 0.923880 0.382683 0.000000
vn 0.653281 0.382683 0.653281
vn 0.000000 0.382683 0.923880
vn -0.653281 0.382683 0.653281
vn -0.923880 0.382683 0.000000
vn -0.653281 0.382683 -0.653281
vn -0.000000 0.382683 -0.923880
vn 0.653281 0.382683 -0.653281
vn 0.923880 0.382683 -0.000000
vn 0.707107 0.707107 0.000000
vn 0.500000 0.707107 0.500000
vn 0.000000 0.707107 0.707107
vn -0.500000 0.707107 0.500000
vn -0.707107 0.707107 0.000000
vn -0.500000 0.707107 -0.500000
vn -0.000000 0.707107 -0.707107
vn 0.500000 0.707107 -0.500000
vn 0.707107 0.707107 -0.000000
vn 0.382683 0.923880 0.000000
vn 0.270598 0.923880 0.270598
vn 0.000000 0.923880 0.382683
vn -0.270598 0.923880 0.270598
vn -0.382683 0.923880 0.000000
vn -0.270598 0.923880 -0.270598
vn -0.000000 0.923880 -0.382683
vn 0.270598 0.923880 -0.270598
vn 0.382683 0.923880 -0.000000
vn 0.000000 1.000000 0.000000
vn 0.000000 1.000000 0.000000
vn 0.000000 1.000000 0.000000
vn -0.000000 1.000000 0.000000
vn -0.000000 1.000000 0.000000
vn -0.000000 1.000000 -0.000000
vn -0.000000 1.000000 -0.000000
vn 0.000000 1.000000 -0.000000
vn 0.000000 1.000000 -0.000000

# Trunk
usemtl TrunkMat

f 1//1 2//1 3//1
f 1//1 3//1 4//1

f 1//2 5//2 6//2
f 1//2 6//2 2//2

f 2//3 6//3 7//3
f 2//3 7//3 3//3

f 3//4 7//4 8//4
f 3//4 8//4 4//4

f 4//5 8//5 5//5
f 4//5 5//5 1//5

# Foliage (sphere)
usemtl LeavesMat

f 9//6 18//15 19//16
f 9//6 19//16 10//7
f 10//7 19//16 20//17
f 10//7 20//17 11//8
f 11//8 20//17 21//18
f 11//8 21//18 12//9
f 12//9 21//18 22//19
f 12//9 22//19 13//10
f 13//10 22//19 23//20
f 13//10 23//20 14//11
f 14//11 23//20 24//21
f 14//11 24//21 15//12
f 15//12 24//21 25//22
f 15//12 25//22 16//13
f 16//13 25//22 26//23
f 16//13 26//23 17//14
f 18//15 27//24 28//25
f 18//15 28//25 19//16
f 19//16 28//25 29//26
f 19//16 29//26 20//17
f 20//17 29//26 30//27
f 20//17 30//27 21//18
f 21//18 30//27 31//28
f 21//18 31//28 22//19
f 22//19 31//28 32//29
f 22//19 32//29 23//20
f 23//20 32//29 33//30
f 23//20 33//30 24//21
f 24//21 33//30 34//31
f 24//21 34//31 25//22
f 25//22 34//31 35//32
f 25//22 35//32 26//23
f 27//24 36//33 37//34
f 27//24 37//34 28//25
f 28//25 37//34 38//35
f 28//25 38//35 29//26
f 29//26 38//35 39//36
f 29//26 39//36 30//27
f 30//27 39//36 40//37
f 30//27 40//37 31//28
f 31//28 40//37 41//38
f 31//28 41//38 32//29
f 32//29 41//38 42//39
f 32//29 42//39 33//30
f 33//30 42//39 43//40
f 33//30 43//40 34//31
f 34//31 43//40 44//41
f 34//31 44//41 35//32
f 36//33 45//42 46//43
f 36//33 46//43 37//34
f 37//34 46//43 47//44
f 37//34 47//44 38//35
f 38//35 47//44 48//45
f 38//35 48//45 39//36
f 39//36 48//45 49//46
f 39//36 49//46 40//37
f 40//37 49//46 50//47
f 40//37 50//47 41//38
f 41//38 50//47 51//48
f 41//38 51//48 42//39
f 42//39 51//48 52//49
f 42//39 52//49 43//40
f 43//40 52//49 53//50
f 43//40 53//50 44//41
f 45//42 54//51 55//52
f 45//42 55//52 46//43
f 46//43 55//52 56//53
f 46//43 56//53 47//44
f 47//44 56//53 57//54
f 47//44 57//54 48//45
f 48//45 57//54 58//55
f 48//45 58//55 49//46
f 49//46 58//55 59//56
f 49//46 59//56 50//47
f 50//47 59//56 60//57
f 50//47 60//57 51//48
f 51//48 60//57 61//58
f 51//48 61//58 52//49
f 52//49 61//58 62//59
f 52//49 62//59 53//50
f 54//51 63//60 64//61
f 54//51 64//61 55//52
f 55//52 64//61 65//62
f 55//52 65//62 56//53
f 56//53 65//62 66//63
f 56//53 66//63 57//54
f 57//54 66//63 67//64
f 57//54 67//64 58//55
f 58//55 67//64 68//65
f 58//55 68//65 59//56
f 59//56 68//65 69//66
f 59//56 69//66 60//57
f 60//57 69//66 70//67
f 60//57 70//67 61//58
f 61//58 70//67 71//68
f 61//58 71//68 62//59
f 63//60 72//69 73//70
f 63//60 73//70 64//61
f 64//61 73//70 74//71
f 64//61 74//71 65//62
f 65//62 74//71 75//72
f 65//62 75//72 66//63
f 66//63 75//72 76//73
f 66//63 76//73 67//64
f 67//64 76//73 77//74
f 67//64 77//74 68//65
f 68//65 77//74 78//75
f 68//65 78//75 69//66
f 69//66 78//75 79//76
f 69//66 79//76 70//67
f 70//67 79//76 80//77
f 70//67 80//77 71//68
f 72//69 81//78 82//79
f 72//69 82//79 73//70
f 73//70 82//79 83//80
f 73//70 83//80 74//71
f 74//71 83//80 84//81
f 74//71 84//81 75//72
f 75//72 84//81 85//82
f 75//72 85//82 76//73
f 76//73 85//82 86//83
f 76//73 86//83 77//74
f 77//74 86//83 87//84
f 77//74 87//84 78//75
f 78//75 87//84 88//85
f 78//75 88//85 79//76
f 79//76 88//85 89//86
f 79//76 89//86 80//77
